<svg xmlns="http://www.w3.org/2000/svg" width="60" height="48.75" viewBox="0 0 60 48.75">
  <g id="multimedia" transform="translate(0)">
    <path id="Path_1161" data-name="Path 1161" d="M51.634,36.391H3.516a2.351,2.351,0,0,1-2.344-2.344V3.516A2.351,2.351,0,0,1,3.516,1.172H51.634a2.351,2.351,0,0,1,2.344,2.344V34.048A2.351,2.351,0,0,1,51.634,36.391Zm0,0" fill="#fff"/>
    <path id="Path_1162" data-name="Path 1162" d="M22.294,12.325l10.561,6.457L22.294,25.238Zm0,0" fill="#fe0000"/>
    <path id="Path_1163" data-name="Path 1163" d="M57.656,47.578H38.877a1.175,1.175,0,0,1-1.172-1.172V27.618a1.175,1.175,0,0,1,1.172-1.172H57.656a1.175,1.175,0,0,1,1.172,1.172V46.406A1.175,1.175,0,0,1,57.656,47.578Zm0,0" fill="#fe0000"/>
    <path id="Path_1164" data-name="Path 1164" d="M50.61,43.376H45.922a2.351,2.351,0,0,1-2.344-2.344V31.658h9.375v9.375A2.351,2.351,0,0,1,50.61,43.376Zm0,0" fill="#fe0000"/>
    <path id="Path_1165" data-name="Path 1165" d="M22.294,26.41a1.172,1.172,0,0,1-1.172-1.172V12.325a1.172,1.172,0,0,1,1.783-1l10.562,6.457a1.172,1.172,0,0,1,0,2L22.906,26.238a1.167,1.167,0,0,1-.611.172Zm1.172-12v8.734l7.142-4.367Zm0,0"/>
    <path id="Path_1166" data-name="Path 1166" d="M57.656,25.275H55.15V3.516A3.519,3.519,0,0,0,51.634,0H3.516A3.52,3.52,0,0,0,0,3.516V34.048a3.52,3.52,0,0,0,3.516,3.516H36.533v8.843a2.347,2.347,0,0,0,2.344,2.344H57.656A2.346,2.346,0,0,0,60,46.406V27.619a2.346,2.346,0,0,0-2.344-2.344ZM36.533,27.619v7.6H3.516a1.174,1.174,0,0,1-1.172-1.172V3.516A1.174,1.174,0,0,1,3.516,2.344H51.634a1.173,1.173,0,0,1,1.172,1.172V25.275H38.877a2.347,2.347,0,0,0-2.344,2.344ZM57.656,46.406H38.877V27.619H57.656Zm0,0"/>
    <path id="Path_1167" data-name="Path 1167" d="M16.486,32.75H5.924a1.172,1.172,0,1,1,0-2.344H16.485a1.172,1.172,0,0,1,0,2.344Zm0,0"/>
    <path id="Path_1169" data-name="Path 1169" d="M55.3,30.485H49.438a1.172,1.172,0,0,0-2.344,0H41.235a1.172,1.172,0,0,0,0,2.344h1.172v8.2a3.519,3.519,0,0,0,3.516,3.516H50.61a3.519,3.519,0,0,0,3.516-3.516v-8.2H55.3a1.172,1.172,0,0,0,0-2.344ZM51.782,41.032A1.172,1.172,0,0,1,50.61,42.2H45.922a1.173,1.173,0,0,1-1.172-1.172v-8.2h2.344V38.22a1.172,1.172,0,0,0,2.344,0V32.829h2.344Zm0,0" fill="#fff"/>
  </g>
</svg>
