<svg xmlns="http://www.w3.org/2000/svg" width="144.4" height="26.401" viewBox="0 0 144.4 26.401">
  <g id="Group_463" transform="translate(4208.146 2645.42)">
    <g id="Group_476" transform="translate(-4208.146 -2659.72)">
      <g id="Group_490" data-name="Group 490" transform="translate(0 3)">
        <path id="Path_2025" data-name="Path 2025" d="M3.8,23.4H0l1.3-4.9H3.8V11.4H9.6v7.1h3.8l-1.3,4.9H9.6v6.1c0,1.6,1,2.5,3.1,2.5a4.872,4.872,0,0,0,1.5-.2l-1.7,5.7c-.3,0-.6.1-.9.1a10.642,10.642,0,0,1-4.3-.8,5.73,5.73,0,0,1-2.6-2.5,8.712,8.712,0,0,1-.9-4.2V23.4Z" fill="#7244f6"/>
        <path id="Path_2026" data-name="Path 2026" d="M30.5,36.5a2.706,2.706,0,0,1-.8.3,10.879,10.879,0,0,1-4,.7,10.564,10.564,0,0,1-5.2-1.3,10.961,10.961,0,0,1-3.9-3.5,8.985,8.985,0,0,1-1.5-5.1,10.065,10.065,0,0,1,.8-3.9,8.978,8.978,0,0,1,2.3-3.1,9,9,0,0,1,3.4-2,10.879,10.879,0,0,1,4-.7A10.664,10.664,0,0,1,33,20.7a9.629,9.629,0,0,1,2.3,3.1,8.53,8.53,0,0,1,.8,3.9v9.4L30.5,37Zm-9-11.2a4.756,4.756,0,0,0-.7,2.3,4.534,4.534,0,0,0,1.4,3.3,4.829,4.829,0,0,0,6.8,0,4.18,4.18,0,0,0,1.4-3.3,3.891,3.891,0,0,0-.7-2.3,4.237,4.237,0,0,0-1.8-1.7,4.751,4.751,0,0,0-2.4-.6,5.325,5.325,0,0,0-2.4.6A5.234,5.234,0,0,0,21.5,25.3Z" fill="#7244f6"/>
        <path id="Path_2027" data-name="Path 2027" d="M47.7,29.7V18.5h5.8V29.7c.1,1.7.8,2.6,2.2,2.6H56c1.5,0,2.2-1.1,2.2-3.1V18.5H64V29.3c0,5.2-2.7,8-8,8.3h-.3a9.617,9.617,0,0,1-5.1-1.5,9.617,9.617,0,0,1-5.1,1.5h-.3c-5.3-.3-8-3.1-8-8.3V18.5H43V29.3c0,2,.7,3,2.2,3.1h.3C46.9,32.3,47.6,31.4,47.7,29.7Z" fill="#7244f6"/>
        <path id="Path_2028" data-name="Path 2028" d="M74.4,23.3a2.133,2.133,0,0,0-1.2-.3h-.3c-1.5.1-2.2,1.1-2.2,3.1V37H64.9V26.1c0-5.3,2.7-8,8-8.3h.3a4.869,4.869,0,0,1,1.2.1Z" fill="#7244f6"/>
        <path id="Path_2029" data-name="Path 2029" d="M94.8,23.7a10.065,10.065,0,0,1,.8,3.9v.7H80.9a4.325,4.325,0,0,0,1.3,2.6,4.534,4.534,0,0,0,3.3,1.4,4.706,4.706,0,0,0,3.3-1.4h0l.1-.1.1-.1v-.1L92.1,35a9.584,9.584,0,0,1-2.7,1.6,9.857,9.857,0,0,1-3.8.7,9.576,9.576,0,0,1-5-1.3,9.954,9.954,0,0,1-5.1-8.7,10.065,10.065,0,0,1,.8-3.9,8.738,8.738,0,0,1,2.2-3.1,10.323,10.323,0,0,1,3.3-2.1,10.664,10.664,0,0,1,7.6,0,11.547,11.547,0,0,1,3.3,2.1A17.351,17.351,0,0,1,94.8,23.7ZM85.5,23a4.645,4.645,0,0,0-2.3.6,6.34,6.34,0,0,0-1.3,1.1H89a3.339,3.339,0,0,0-1.3-1.1A4.032,4.032,0,0,0,85.5,23Z" fill="#7244f6"/>
        <path id="Path_2030" data-name="Path 2030" d="M116,23.7a10.065,10.065,0,0,1,.8,3.9v.7H102.2a4.325,4.325,0,0,0,1.3,2.6,4.534,4.534,0,0,0,3.3,1.4,4.706,4.706,0,0,0,3.3-1.4h0l.1-.1.1-.1v-.1l3.1,4.4a9.584,9.584,0,0,1-2.7,1.6,9.857,9.857,0,0,1-3.8.7,9.576,9.576,0,0,1-5-1.3,9.954,9.954,0,0,1-5.1-8.7,10.065,10.065,0,0,1,.8-3.9,8.738,8.738,0,0,1,2.2-3.1,10.323,10.323,0,0,1,3.3-2.1,10.664,10.664,0,0,1,7.6,0,11.547,11.547,0,0,1,3.3,2.1A16.826,16.826,0,0,1,116,23.7Zm-9.3-.7a4.645,4.645,0,0,0-2.3.6,6.34,6.34,0,0,0-1.3,1.1h7.1a3.339,3.339,0,0,0-1.3-1.1A4.032,4.032,0,0,0,106.7,23Z" fill="#7244f6"/>
        <path id="Path_2031" data-name="Path 2031" d="M138.9,27.8a8.9,8.9,0,0,1-1.5,5,10.1,10.1,0,0,1-3.9,3.5,10.564,10.564,0,0,1-5.2,1.3,10.664,10.664,0,0,1-7.4-2.8,9.017,9.017,0,0,1-2.3-3.2,8.53,8.53,0,0,1-.8-3.9,10.065,10.065,0,0,1,.8-3.9,10.449,10.449,0,0,1,2.3-3.2,11.369,11.369,0,0,1,11.4-2.1l.4.2.4.2V11.3h5.8Zm-5.7-.1a3.891,3.891,0,0,0-.7-2.3,4.237,4.237,0,0,0-1.8-1.7,4.751,4.751,0,0,0-2.4-.6,5.325,5.325,0,0,0-2.4.6,5.814,5.814,0,0,0-1.8,1.7,4.756,4.756,0,0,0-.7,2.3,4.534,4.534,0,0,0,1.4,3.3,4.829,4.829,0,0,0,6.8,0A4.2,4.2,0,0,0,133.2,27.7Z" fill="#7244f6"/>
      </g>
      <circle id="Ellipse_9001" cx="3.2" cy="3.2" r="3.2" transform="translate(138 34.301)" fill="#00d28f"/>
    </g>
  </g>
</svg>
