<svg xmlns="http://www.w3.org/2000/svg" xmlns:xlink="http://www.w3.org/1999/xlink" width="207.567" height="202.348" viewBox="0 0 207.567 202.348">
  <defs>
    <linearGradient id="linear-gradient" x1="1.338" y1="0.382" x2="0" y2="0.368" gradientUnits="objectBoundingBox">
      <stop offset="0" stop-color="#e42800"/>
      <stop offset="0.592" stop-color="#e49b00"/>
      <stop offset="1" stop-color="#e42800"/>
    </linearGradient>
    <linearGradient id="linear-gradient-6" x1="0.971" y1="0.849" x2="0" y2="0.332" gradientUnits="objectBoundingBox">
      <stop offset="0" stop-color="#f8f844"/>
      <stop offset="0.504" stop-color="#e42d04"/>
      <stop offset="1" stop-color="#e42902"/>
    </linearGradient>
    <radialGradient id="radial-gradient" cx="0.617" cy="0.289" r="0.719" gradientTransform="translate(0.984 -0.135) rotate(105.441)" gradientUnits="objectBoundingBox">
      <stop offset="0" stop-color="#e4e459"/>
      <stop offset="0.713" stop-color="#e42902"/>
      <stop offset="1" stop-color="#e42902"/>
    </radialGradient>
  </defs>
  <g id="Group_5385" data-name="Group 5385" transform="translate(14080.431 7504.278)">
    <path id="Path_14964" data-name="Path 14964" d="M-13975.517-7504.278c1.825,0-5.21,8.224-4.067,14.625s2.98,7.781,11.9,10.175a35.018,35.018,0,0,0,9.609,1.119,51.6,51.6,0,0,0,12.065-1.119c10.866-2.075,21.646-8.425,21.79-7.3s-11.646,8.685-21.214,11.8-15.909,2.882-25.709,2.19-16.559-8.187-15.74-16.862S-13977.342-7504.278-13975.517-7504.278Z" fill="url(#linear-gradient)"/>
    <path id="Path_14965" data-name="Path 14965" d="M-13975.517-7504.278c1.825,0-5.21,8.224-4.067,14.625s2.98,7.781,11.9,10.175a35.018,35.018,0,0,0,9.609,1.119,51.6,51.6,0,0,0,12.065-1.119c10.866-2.075,21.646-8.425,21.79-7.3s-11.646,8.685-21.214,11.8-15.909,2.882-25.709,2.19-16.559-8.187-15.74-16.862S-13977.342-7504.278-13975.517-7504.278Z" transform="translate(-16162.213 8262.8) rotate(70)" fill="url(#linear-gradient)"/>
    <path id="Path_14966" data-name="Path 14966" d="M-13975.517-7504.278c1.825,0-5.21,8.224-4.067,14.625s2.98,7.781,11.9,10.175a35.018,35.018,0,0,0,9.609,1.119,51.6,51.6,0,0,0,12.065-1.119c10.866-2.075,21.646-8.425,21.79-7.3s-11.646,8.685-21.214,11.8-15.909,2.882-25.709,2.19-16.559-8.187-15.74-16.862S-13977.342-7504.278-13975.517-7504.278Z" transform="translate(-29457.586 -4100.223) rotate(140)" fill="url(#linear-gradient)"/>
    <path id="Path_14967" data-name="Path 14967" d="M-13975.517-7504.278c1.825,0-5.21,8.224-4.067,14.625s2.98,7.781,11.9,10.175a35.018,35.018,0,0,0,9.609,1.119,51.6,51.6,0,0,0,12.065-1.119c10.866-2.075,21.646-8.425,21.79-7.3s-11.646,8.685-21.214,11.8-15.909,2.882-25.709,2.19-16.559-8.187-15.74-16.862S-13977.342-7504.278-13975.517-7504.278Z" transform="translate(-22387.021 -20826.689) rotate(-150)" fill="url(#linear-gradient)"/>
    <path id="Path_14968" data-name="Path 14968" d="M-13975.517-7504.278c1.825,0-5.21,8.224-4.067,14.625s2.98,7.781,11.9,10.175a35.018,35.018,0,0,0,9.609,1.119,51.6,51.6,0,0,0,12.065-1.119c10.866-2.075,21.646-8.425,21.79-7.3s-11.646,8.685-21.214,11.8-15.909,2.882-25.709,2.19-16.559-8.187-15.74-16.862S-13977.342-7504.278-13975.517-7504.278Z" transform="matrix(0.174, -0.985, 0.985, 0.174, -4248.372, -19900.488)" fill="url(#linear-gradient)"/>
    <path id="Path_14969" data-name="Path 14969" d="M-14018.74-7461.507c0-1.007,12.639-7.829,25.869-9.427s15.027-1.868,27.051,3.033,26.81,16.582,19.808,22.521-8.036-4.333-18.2-12.4-14.394-8.239-27.624-8.836S-14018.74-7460.5-14018.74-7461.507Z" transform="translate(-0.159 -0.459)" fill="url(#linear-gradient-6)"/>
    <path id="Path_14970" data-name="Path 14970" d="M-14018.74-7461.507c0-1.007,12.639-7.829,25.869-9.427s15.027-1.868,27.051,3.033,26.81,16.582,19.808,22.521-8.036-4.333-18.2-12.4-14.394-8.239-27.624-8.836S-14018.74-7460.5-14018.74-7461.507Z" transform="translate(-16161.674 8261.684) rotate(70)" fill="url(#linear-gradient-6)"/>
    <path id="Path_14971" data-name="Path 14971" d="M-14018.74-7461.507c0-1.007,12.639-7.829,25.869-9.427s15.027-1.868,27.051,3.033,26.81,16.582,19.808,22.521-8.036-4.333-18.2-12.4-14.394-8.239-27.624-8.836S-14018.74-7460.5-14018.74-7461.507Z" transform="translate(-29453.496 -4102.2) rotate(140)" fill="url(#linear-gradient-6)"/>
    <path id="Path_14972" data-name="Path 14972" d="M-14018.74-7461.507c0-1.007,12.639-7.829,25.869-9.427s15.027-1.868,27.051,3.033,26.81,16.582,19.808,22.521-8.036-4.333-18.2-12.4-14.394-8.239-27.624-8.836S-14018.74-7460.5-14018.74-7461.507Z" transform="translate(-22382.414 -20821.789) rotate(-150)" fill="url(#linear-gradient-6)"/>
    <path id="Path_14973" data-name="Path 14973" d="M-14018.74-7461.507c0-1.007,12.639-7.829,25.869-9.427s15.027-1.868,27.051,3.033,26.81,16.582,19.808,22.521-8.036-4.333-18.2-12.4-14.394-8.239-27.624-8.836S-14018.74-7460.5-14018.74-7461.507Z" transform="matrix(0.174, -0.985, 0.985, 0.174, -4251.086, -19895.271)" fill="url(#linear-gradient-6)"/>
    <path id="Path_14974" data-name="Path 14974" d="M6.5,0A6.5,6.5,0,1,1,0,6.5,6.5,6.5,0,0,1,6.5,0Z" transform="translate(-14027 -7430)" fill="url(#radial-gradient)"/>
    <path id="Path_14975" data-name="Path 14975" d="M6.5,0A6.5,6.5,0,1,1,0,6.5,6.5,6.5,0,0,1,6.5,0Z" transform="translate(-13975.615 -7462.831) rotate(70)" fill="url(#radial-gradient)"/>
    <path id="Path_14978" data-name="Path 14978" d="M6.5,0A6.5,6.5,0,1,1,0,6.5,6.5,6.5,0,0,1,6.5,0Z" transform="matrix(-0.259, 0.966, -0.966, -0.259, -13930.539, -7428.096)" fill="url(#radial-gradient)"/>
    <path id="Path_14976" data-name="Path 14976" d="M6.5,0A6.5,6.5,0,1,1,0,6.5,6.5,6.5,0,0,1,6.5,0Z" transform="translate(-13952.099 -7367.439) rotate(-150)" fill="url(#radial-gradient)"/>
    <path id="Path_14977" data-name="Path 14977" d="M6.5,0A6.5,6.5,0,1,1,0,6.5,6.5,6.5,0,0,1,6.5,0Z" transform="matrix(0.174, -0.985, 0.985, 0.174, -14011.53, -7372.113)" fill="url(#radial-gradient)"/>
  </g>
</svg>
