<svg xmlns="http://www.w3.org/2000/svg" xmlns:xlink="http://www.w3.org/1999/xlink" width="60" height="60" viewBox="0 0 60 60">
  <defs>
    <clipPath id="clip-path">
      <rect id="Rectangle_1633" data-name="Rectangle 1633" width="60" height="60" fill="#00d28f" stroke="#9f9f9f" stroke-width="1"/>
    </clipPath>
  </defs>
  <g id="Mask_Group_5" data-name="Mask Group 5" clip-path="url(#clip-path)">
    <path id="fi-sr-info" d="M30,60A30,30,0,1,0,0,30,30,30,0,0,0,30,60Zm0-47.5a3.75,3.75,0,1,1-3.75,3.75A3.75,3.75,0,0,1,30,12.5ZM27.5,25H30a5,5,0,0,1,5,5V45a2.5,2.5,0,0,1-5,0V30H27.5a2.5,2.5,0,0,1,0-5Z" fill="#00d28f"/>
  </g>
</svg>
