<svg xmlns="http://www.w3.org/2000/svg" width="14" height="14" viewBox="0 0 14 14">
  <g id="Group_5388" data-name="Group 5388" transform="translate(-265 -3589)">
    <rect id="Rectangle_3110" data-name="Rectangle 3110" width="14" height="14" rx="7" transform="translate(265 3589)" fill="#ffdb5d"/>
    <g id="XMLID_19_" transform="translate(265 3589)">
      <path id="XMLID_20_" d="M13.045,6.364H10.5a.636.636,0,1,0,0,1.273h2.545a.636.636,0,0,0,0-1.273Z" fill="#2d2d33"/>
      <path id="XMLID_21_" d="M2.227,6.364H.955a.636.636,0,1,0,0,1.273H2.227a.636.636,0,1,0,0-1.273Z" fill="#2d2d33"/>
      <path id="XMLID_22_" d="M6.682,10.182a.636.636,0,0,0-.636.636v2.545a.636.636,0,0,0,1.273,0V10.818A.636.636,0,0,0,6.682,10.182Z" fill="#2d2d33"/>
      <path id="XMLID_23_" d="M6.682,0a.636.636,0,0,0-.636.636V3.182a.636.636,0,0,0,1.273,0V.636A.636.636,0,0,0,6.682,0Z" fill="#2d2d33"/>
      <path id="XMLID_24_" d="M9.832,9.25a.636.636,0,0,0-.9.9l1.8,1.8a.636.636,0,1,0,.9-.9Z" fill="#2d2d33"/>
      <path id="XMLID_25_" d="M2.632,2.05a.636.636,0,0,0-.9.9l1.8,1.8a.636.636,0,0,0,.9-.9Z" fill="#2d2d33"/>
      <path id="XMLID_26_" d="M9.382,4.936a.635.635,0,0,0,.45-.186l1.8-1.8a.636.636,0,0,0-.9-.9l-1.8,1.8a.636.636,0,0,0,.45,1.086Z" fill="#2d2d33"/>
    </g>
  </g>
</svg>
