<svg xmlns="http://www.w3.org/2000/svg" width="18" height="18" viewBox="0 0 18 18">
  <g id="fi-sr-settings-sliders" transform="translate(0 0)">
    <path id="Path_1146" data-name="Path 1146" d="M.75,3.562H2.8a2.8,2.8,0,0,0,5.4,0H17.25a.75.75,0,1,0,0-1.5H8.2a2.8,2.8,0,0,0-5.4,0H.75a.75.75,0,0,0,0,1.5Z" fill="#9f9f9f"/>
    <path id="Path_1147" data-name="Path 1147" d="M17.25,8.25H15.2a2.8,2.8,0,0,0-5.4,0H.75a.75.75,0,0,0,0,1.5H9.8a2.8,2.8,0,0,0,5.4,0H17.25a.75.75,0,1,0,0-1.5Z" fill="#9f9f9f"/>
    <path id="Path_1148" data-name="Path 1148" d="M17.25,14.437H8.2a2.8,2.8,0,0,0-5.4,0H.75a.75.75,0,1,0,0,1.5H2.8a2.8,2.8,0,0,0,5.4,0H17.25a.75.75,0,1,0,0-1.5Z" fill="#9f9f9f"/>
  </g>
</svg>
