<svg id="fi-sr-upload" xmlns="http://www.w3.org/2000/svg" width="24" height="24" viewBox="0 0 24 24">
  <path id="Path_1152" data-name="Path 1152" d="M22,17v4a1,1,0,0,1-1,1H3a1,1,0,0,1-1-1V17a1,1,0,0,0-1-1H1a1,1,0,0,0-1,1v4a3,3,0,0,0,3,3H21a3,3,0,0,0,3-3V17a1,1,0,0,0-1-1h0A1,1,0,0,0,22,17Z" transform="translate(0 0)"/>
  <path id="Path_1153" data-name="Path 1153" d="M18.707,5.462,14.121.875a3.007,3.007,0,0,0-4.242,0L5.293,5.462A1,1,0,1,0,6.707,6.876L11,2.584V18a1,1,0,0,0,2,0V2.583l4.293,4.293a1,1,0,1,0,1.414-1.414Z" transform="translate(0 0)"/>
</svg>
